# xmcd
#
# Track frame offsets: 
#        150
#        10832
#        24508
#        37178
#        51738
#        64075
#        76014
#        89420
#        102620
#        118609
#        130311
#        144334
#        158687
#        172447
#        187427
#        200396
#
# Disc length: 2872 seconds
#
# Revision: 3
# Processed by: cddbd v1.5.2PL0 Copyright (c) Steve Scherf et al.
# Submitted via: ExactAudioCopyFreeDBPlugin 1.0
#
DISCID=ec0b3610
DTITLE=Diverse - Goody Goody
DYEAR=2003
DGENRE=Swing
TTITLE0=Benny Goodman - Goody Goody
TTITLE1=Louis Armstrong - All  Of Me
TTITLE2=Cab Calloway - The Jumpin' Jive
TTITLE3=Glenn Miller - Pennsylvania 6-5000
TTITLE4=Dorsay Brothers and Bob Crosby - Lullaby Of Broadway
TTITLE5=Mills Brothers - Paper Doll
TTITLE6=Harry James and Frank Sinatra - All Or Nothing At All
TTITLE7=Duke Ellington - Take The A-Train
TTITLE8=Glenn Miller - In The Mood
TTITLE9=Al Jolson - Give My Regards To Broadway
TTITLE10=Andrew Sisters - Bei Mir Bist Du Schön
TTITLE11=Tommy Dorsey and Frank Sinatra - I'll Never Smile Again
TTITLE12=Artie Shaw - Frenesi
TTITLE13=Kay Kyser - On A Slow Boat To China
TTITLE14=Tommy Dorsey - Music, Maestro, Please
TTITLE15=Lionel Hampton - Ring Dem Bells
EXTD=YEAR: 2003
EXTT0=
EXTT1=
EXTT2=
EXTT3=
EXTT4=
EXTT5=
EXTT6=
EXTT7=
EXTT8=
EXTT9=
EXTT10=
EXTT11=
EXTT12=
EXTT13=
EXTT14=
EXTT15=
PLAYORDER=
